M48
; DRILL file {KiCad 9.0.5} date 2025-11-03T18:22:47+0530
; FORMAT={-:-/ absolute / metric / decimal}
; #@! TF.CreationDate,2025-11-03T18:22:47+05:30
; #@! TF.GenerationSoftware,Kicad,Pcbnew,9.0.5
; #@! TF.FileFunction,Plated,1,2,PTH
FMAT,2
METRIC
; #@! TA.AperFunction,Plated,PTH,ComponentDrill
T1C0.500
; #@! TA.AperFunction,Plated,PTH,ComponentDrill
T2C0.750
; #@! TA.AperFunction,Plated,PTH,ComponentDrill
T3C0.800
; #@! TA.AperFunction,Plated,PTH,ComponentDrill
T4C1.000
%
G90
G05
T1
X61.23Y-110.009
X62.23Y-110.009
X101.992Y-102.937
X101.992Y-103.937
X101.992Y-104.937
T2
X43.891Y-72.348
X45.161Y-72.348
X46.431Y-72.348
X52.324Y-40.099
X53.594Y-40.099
X54.864Y-40.099
X60.249Y-102.819
X61.519Y-102.819
X62.789Y-102.819
X73.558Y-36.742
X73.558Y-38.012
X73.558Y-39.282
X83.257Y-33.033
X83.257Y-34.303
X83.257Y-35.573
X83.464Y-90.133
X83.464Y-91.403
X83.464Y-92.673
X118.313Y-47.257
X118.313Y-48.527
X118.313Y-49.797
T3
X38.303Y-65.19
X39.878Y-34.507
X39.878Y-39.739
X39.878Y-49.899
X41.493Y-53.506
X43.485Y-109.705
X43.942Y-44.819
X44.145Y-89.893
X44.145Y-93.943
X44.145Y-98.427
X46.493Y-53.506
X48.463Y-65.19
X49.022Y-49.493
X50.038Y-34.507
X51.816Y-54.928
X51.816Y-65.088
X51.816Y-70.607
X51.816Y-72.607
X53.34Y-78.957
X53.391Y-82.652
X53.645Y-109.705
X54.022Y-49.493
X54.102Y-44.819
X54.305Y-89.893
X54.305Y-93.943
X54.305Y-98.427
X54.305Y-101.464
X54.305Y-106.464
X58.273Y-61.431
X58.273Y-63.971
X58.273Y-66.511
X58.273Y-69.051
X59.436Y-37.239
X59.436Y-42.239
X59.69Y-97.485
X60.858Y-86.323
X60.858Y-88.863
X60.858Y-91.403
X60.858Y-93.943
X63.043Y-46.431
X63.043Y-56.591
X63.144Y-32.119
X63.5Y-78.957
X63.551Y-82.652
X65.893Y-61.431
X65.893Y-63.971
X65.893Y-66.511
X65.893Y-69.051
X68.123Y-45.506
X68.123Y-50.506
X68.377Y-101.464
X68.377Y-111.624
X68.478Y-86.323
X68.478Y-88.863
X68.478Y-91.403
X68.478Y-93.943
X69.85Y-97.485
X73.304Y-32.119
X74.981Y-48.92
X74.981Y-59.08
X76.048Y-67.056
X76.048Y-77.216
X76.098Y-79.922
X76.098Y-90.082
X76.149Y-101.464
X76.149Y-111.624
X77.826Y-33.541
X77.826Y-38.541
X81.732Y-55.22
X81.732Y-57.76
X81.732Y-60.3
X81.732Y-62.84
X82.906Y-71.606
X82.906Y-76.606
X83.617Y-38.977
X83.617Y-49.137
X83.718Y-97.587
X83.718Y-107.747
X86.97Y-82.296
X88.036Y-42.469
X89.352Y-55.22
X89.352Y-57.76
X89.352Y-60.3
X89.352Y-62.84
X89.56Y-76.264
X89.64Y-87.847
X91.084Y-92.304
X91.084Y-102.464
X92.1Y-71.184
X94.64Y-76.264
X94.64Y-87.847
X97.13Y-82.296
X98.196Y-42.469
X98.857Y-87.847
X98.857Y-98.007
X101.346Y-57.316
X101.346Y-67.476
X106.832Y-74.08
X106.832Y-84.24
X106.974Y-68.441
X107.696Y-57.316
X107.95Y-91.453
X107.95Y-101.613
X111.974Y-68.441
X112.776Y-54.776
X112.776Y-59.856
X112.878Y-79.16
X115.418Y-84.24
X115.418Y-91.453
X115.418Y-101.613
X115.915Y-68.441
X117.094Y-105.918
X117.958Y-79.16
X118.313Y-54.776
X118.313Y-64.936
X119.634Y-110.998
X120.915Y-68.441
X121.514Y-96.483
X122.174Y-105.918
X124.054Y-54.776
X124.054Y-64.936
X124.054Y-74.08
X124.054Y-84.24
X124.054Y-91.403
X124.917Y-69.393
X126.594Y-96.483
X129.54Y-74.08
X129.54Y-84.24
X129.917Y-69.393
T4
X46.025Y-103.964
X47.803Y-58.743
X47.803Y-61.283
X48.565Y-103.964
X82.448Y-67.666
X89.459Y-34.303
X89.459Y-36.843
M30
