%TF.GenerationSoftware,KiCad,Pcbnew,9.0.5*%
%TF.CreationDate,2025-11-03T18:22:31+05:30*%
%TF.ProjectId,full_schematic_kicad.kicad_pcb_final,66756c6c-5f73-4636-9865-6d617469635f,rev?*%
%TF.SameCoordinates,Original*%
%TF.FileFunction,Copper,L1,Top*%
%TF.FilePolarity,Positive*%
%FSLAX46Y46*%
G04 Gerber Fmt 4.6, Leading zero omitted, Abs format (unit mm)*
G04 Created by KiCad (PCBNEW 9.0.5) date 2025-11-03 18:22:31*
%MOMM*%
%LPD*%
G01*
G04 APERTURE LIST*
G04 Aperture macros list*
%AMRoundRect*
0 Rectangle with rounded corners*
0 $1 Rounding radius*
0 $2 $3 $4 $5 $6 $7 $8 $9 X,Y pos of 4 corners*
0 Add a 4 corners polygon primitive as box body*
4,1,4,$2,$3,$4,$5,$6,$7,$8,$9,$2,$3,0*
0 Add four circle primitives for the rounded corners*
1,1,$1+$1,$2,$3*
1,1,$1+$1,$4,$5*
1,1,$1+$1,$6,$7*
1,1,$1+$1,$8,$9*
0 Add four rect primitives between the rounded corners*
20,1,$1+$1,$2,$3,$4,$5,0*
20,1,$1+$1,$4,$5,$6,$7,0*
20,1,$1+$1,$6,$7,$8,$9,0*
20,1,$1+$1,$8,$9,$2,$3,0*%
G04 Aperture macros list end*
%TA.AperFunction,ComponentPad*%
%ADD10O,1.050000X1.500000*%
%TD*%
%TA.AperFunction,ComponentPad*%
%ADD11R,1.050000X1.500000*%
%TD*%
%TA.AperFunction,ComponentPad*%
%ADD12R,1.700000X1.700000*%
%TD*%
%TA.AperFunction,ComponentPad*%
%ADD13C,1.700000*%
%TD*%
%TA.AperFunction,ComponentPad*%
%ADD14C,1.600000*%
%TD*%
%TA.AperFunction,ComponentPad*%
%ADD15C,1.440000*%
%TD*%
%TA.AperFunction,ComponentPad*%
%ADD16RoundRect,0.250000X0.550000X-0.550000X0.550000X0.550000X-0.550000X0.550000X-0.550000X-0.550000X0*%
%TD*%
%TA.AperFunction,ComponentPad*%
%ADD17R,1.500000X1.050000*%
%TD*%
%TA.AperFunction,ComponentPad*%
%ADD18O,1.500000X1.050000*%
%TD*%
%TA.AperFunction,ComponentPad*%
%ADD19RoundRect,0.250000X-0.550000X0.550000X-0.550000X-0.550000X0.550000X-0.550000X0.550000X0.550000X0*%
%TD*%
%TA.AperFunction,ComponentPad*%
%ADD20RoundRect,0.250000X-0.550000X-0.550000X0.550000X-0.550000X0.550000X0.550000X-0.550000X0.550000X0*%
%TD*%
%TA.AperFunction,ComponentPad*%
%ADD21R,0.850000X0.850000*%
%TD*%
%TA.AperFunction,ComponentPad*%
%ADD22C,0.850000*%
%TD*%
%TA.AperFunction,ComponentPad*%
%ADD23RoundRect,0.250000X0.550000X0.550000X-0.550000X0.550000X-0.550000X-0.550000X0.550000X-0.550000X0*%
%TD*%
%TA.AperFunction,Conductor*%
%ADD24C,0.200000*%
%TD*%
G04 APERTURE END LIST*
D10*
%TO.P,Q6,3,E*%
%TO.N,Net-(Q6-E)*%
X54864000Y-40099000D03*
%TO.P,Q6,2,B*%
%TO.N,Net-(Q6-B)*%
X53594000Y-40099000D03*
D11*
%TO.P,Q6,1,C*%
%TO.N,/vdd*%
X52324000Y-40099000D03*
%TD*%
D12*
%TO.P,noise_input1,1,Pin_1*%
%TO.N,Net-(Q1-E)*%
X47802800Y-61283200D03*
D13*
%TO.P,noise_input1,2,Pin_2*%
%TO.N,0*%
X47802800Y-58743200D03*
%TD*%
D14*
%TO.P,R25,1*%
%TO.N,Net-(U4B-+)*%
X83718400Y-97586800D03*
%TO.P,R25,2*%
%TO.N,0*%
X83718400Y-107746800D03*
%TD*%
%TO.P,R16,1*%
%TO.N,Net-(Q6-B)*%
X54102000Y-44819000D03*
%TO.P,R16,2*%
%TO.N,0*%
X43942000Y-44819000D03*
%TD*%
D15*
%TO.P,RV3,1,1*%
%TO.N,Net-(Q9-C)*%
X112776000Y-54775800D03*
%TO.P,RV3,2,2*%
%TO.N,Net-(R28-Pad1)*%
X107696000Y-57315800D03*
%TO.P,RV3,3,3*%
%TO.N,0*%
X112776000Y-59855800D03*
%TD*%
D14*
%TO.P,C13,1*%
%TO.N,0*%
X129917200Y-69392800D03*
%TO.P,C13,2*%
%TO.N,Net-(C13-Pad2)*%
X124917200Y-69392800D03*
%TD*%
D16*
%TO.P,D2,1,+*%
%TO.N,Net-(D2-+)*%
X74980800Y-59080400D03*
D14*
%TO.P,D2,2,-*%
%TO.N,Net-(D2--)*%
X74980800Y-48920400D03*
%TD*%
%TO.P,R1,1*%
%TO.N,/vdd*%
X63550800Y-82651600D03*
%TO.P,R1,2*%
%TO.N,Net-(Q1-E)*%
X53390800Y-82651600D03*
%TD*%
D17*
%TO.P,Q9,1,C*%
%TO.N,Net-(Q9-C)*%
X118313200Y-49797400D03*
D18*
%TO.P,Q9,2,B*%
%TO.N,Net-(Q9-B)*%
X118313200Y-48527400D03*
%TO.P,Q9,3,E*%
%TO.N,0*%
X118313200Y-47257400D03*
%TD*%
D17*
%TO.P,Q5,1,C*%
%TO.N,Net-(D2--)*%
X73558400Y-39281800D03*
D18*
%TO.P,Q5,2,B*%
%TO.N,Net-(Q5-B)*%
X73558400Y-38011800D03*
%TO.P,Q5,3,E*%
%TO.N,0*%
X73558400Y-36741800D03*
%TD*%
D14*
%TO.P,R15,1*%
%TO.N,Net-(U2A--)*%
X38303200Y-65189800D03*
%TO.P,R15,2*%
%TO.N,0*%
X48463200Y-65189800D03*
%TD*%
%TO.P,R17,1*%
%TO.N,Net-(Q6-E)*%
X39878000Y-39739000D03*
%TO.P,R17,2*%
%TO.N,Net-(C7-Pad1)*%
X39878000Y-49899000D03*
%TD*%
D15*
%TO.P,RV4,1,1*%
%TO.N,Net-(R31-Pad1)*%
X112877600Y-79159800D03*
%TO.P,RV4,2,2*%
%TO.N,Net-(U3A--)*%
X115417600Y-84239800D03*
%TO.P,RV4,3,3*%
%TO.N,0*%
X117957600Y-79159800D03*
%TD*%
%TO.P,RV5,1,1*%
%TO.N,Net-(D3--)*%
X94640400Y-76264200D03*
%TO.P,RV5,2,2*%
%TO.N,Net-(D2-+)*%
X92100400Y-71184200D03*
%TO.P,RV5,3,3*%
%TO.N,0*%
X89560400Y-76264200D03*
%TD*%
D14*
%TO.P,R28,1*%
%TO.N,Net-(R28-Pad1)*%
X101346000Y-57315800D03*
%TO.P,R28,2*%
%TO.N,0*%
X101346000Y-67475800D03*
%TD*%
%TO.P,R24,1*%
%TO.N,Net-(D3-+)*%
X91084400Y-102463600D03*
%TO.P,R24,2*%
%TO.N,Net-(U4B-+)*%
X91084400Y-92303600D03*
%TD*%
D19*
%TO.P,C1,1*%
%TO.N,Net-(U2A-+)*%
X51816000Y-70606600D03*
D14*
%TO.P,C1,2*%
%TO.N,Net-(Q1-E)*%
X51816000Y-72606600D03*
%TD*%
D17*
%TO.P,Q7,1,C*%
%TO.N,/vdd*%
X83464400Y-90132600D03*
D18*
%TO.P,Q7,2,B*%
%TO.N,Net-(Q7-B)*%
X83464400Y-91402600D03*
%TO.P,Q7,3,E*%
%TO.N,Net-(D3-+)*%
X83464400Y-92672600D03*
%TD*%
D14*
%TO.P,C9,1*%
%TO.N,Net-(C9-Pad1)*%
X59436000Y-42239000D03*
%TO.P,C9,2*%
%TO.N,Net-(Q6-E)*%
X59436000Y-37239000D03*
%TD*%
%TO.P,R18,1*%
%TO.N,/-vdd*%
X50038000Y-34506600D03*
%TO.P,R18,2*%
%TO.N,Net-(Q6-E)*%
X39878000Y-34506600D03*
%TD*%
%TO.P,R6,1*%
%TO.N,Net-(U2B--)*%
X76098400Y-79921800D03*
%TO.P,R6,2*%
%TO.N,Net-(C12-Pad1)*%
X76098400Y-90081800D03*
%TD*%
%TO.P,C6,1*%
%TO.N,Net-(D3--)*%
X94640400Y-87846600D03*
%TO.P,C6,2*%
%TO.N,0*%
X89640400Y-87846600D03*
%TD*%
%TO.P,R31,1*%
%TO.N,Net-(R31-Pad1)*%
X124053600Y-74079800D03*
%TO.P,R31,2*%
%TO.N,Net-(U3A--)*%
X124053600Y-84239800D03*
%TD*%
D20*
%TO.P,D4,1,+*%
%TO.N,0*%
X44145200Y-98427000D03*
D14*
%TO.P,D4,2,-*%
%TO.N,Net-(D4--)*%
X54305200Y-98427000D03*
%TD*%
D21*
%TO.P,3V_input_dc1,1,Pin_1*%
%TO.N,/3v*%
X61230000Y-110009400D03*
D22*
%TO.P,3V_input_dc1,2,Pin_2*%
%TO.N,0*%
X62230000Y-110009400D03*
%TD*%
D14*
%TO.P,C8,1*%
%TO.N,Net-(Q6-B)*%
X54022000Y-49492600D03*
%TO.P,C8,2*%
%TO.N,Net-(C7-Pad1)*%
X49022000Y-49492600D03*
%TD*%
%TO.P,R36,1*%
%TO.N,Net-(C13-Pad2)*%
X124053600Y-64935800D03*
%TO.P,R36,2*%
%TO.N,Net-(Q9-B)*%
X124053600Y-54775800D03*
%TD*%
D12*
%TO.P,input_pulse1,1,Pin_1*%
%TO.N,Net-(input_pulse1-Pin_1)*%
X48564800Y-103964200D03*
D13*
%TO.P,input_pulse1,2,Pin_2*%
%TO.N,0*%
X46024800Y-103964200D03*
%TD*%
D14*
%TO.P,C11,1*%
%TO.N,Net-(C11-Pad1)*%
X111974000Y-68441000D03*
%TO.P,C11,2*%
%TO.N,Net-(U4B--)*%
X106974000Y-68441000D03*
%TD*%
D11*
%TO.P,Q1,1,C*%
%TO.N,unconnected-(Q1-C-Pad1)*%
X46431200Y-72348200D03*
D10*
%TO.P,Q1,2,B*%
%TO.N,0*%
X45161200Y-72348200D03*
%TO.P,Q1,3,E*%
%TO.N,Net-(Q1-E)*%
X43891200Y-72348200D03*
%TD*%
D14*
%TO.P,R38,1*%
%TO.N,Net-(R38-Pad1)*%
X115417600Y-91453400D03*
%TO.P,R38,2*%
%TO.N,Net-(D5--)*%
X115417600Y-101613400D03*
%TD*%
D12*
%TO.P,final_output1,1,Pin_1*%
%TO.N,Net-(final_output1-Pin_1)*%
X82448400Y-67665600D03*
%TD*%
D14*
%TO.P,C4,1*%
%TO.N,0*%
X77825600Y-33541400D03*
%TO.P,C4,2*%
%TO.N,Net-(D2--)*%
X77825600Y-38541400D03*
%TD*%
%TO.P,R23,1*%
%TO.N,0*%
X43484800Y-109704600D03*
%TO.P,R23,2*%
%TO.N,Net-(Q7-B)*%
X53644800Y-109704600D03*
%TD*%
D20*
%TO.P,U4,1*%
%TO.N,Net-(D5-+)*%
X60858400Y-86322600D03*
D14*
%TO.P,U4,2,-*%
%TO.N,Net-(U4A--)*%
X60858400Y-88862600D03*
%TO.P,U4,3,+*%
%TO.N,Net-(D4--)*%
X60858400Y-91402600D03*
%TO.P,U4,4,V-*%
%TO.N,/-vdd*%
X60858400Y-93942600D03*
%TO.P,U4,5,+*%
%TO.N,Net-(U4B-+)*%
X68478400Y-93942600D03*
%TO.P,U4,6,-*%
%TO.N,Net-(U4B--)*%
X68478400Y-91402600D03*
%TO.P,U4,7*%
%TO.N,Net-(C12-Pad1)*%
X68478400Y-88862600D03*
%TO.P,U4,8,V+*%
%TO.N,/vdd*%
X68478400Y-86322600D03*
%TD*%
%TO.P,R19,1*%
%TO.N,Net-(D4--)*%
X54305200Y-93942600D03*
%TO.P,R19,2*%
%TO.N,0*%
X44145200Y-93942600D03*
%TD*%
%TO.P,R20,1*%
%TO.N,Net-(U4A--)*%
X54305200Y-89892600D03*
%TO.P,R20,2*%
%TO.N,0*%
X44145200Y-89892600D03*
%TD*%
%TO.P,C10,1*%
%TO.N,Net-(D4--)*%
X54305200Y-101464200D03*
%TO.P,C10,2*%
%TO.N,Net-(input_pulse1-Pin_1)*%
X54305200Y-106464200D03*
%TD*%
D23*
%TO.P,U3,1*%
%TO.N,Net-(R31-Pad1)*%
X89352200Y-62839600D03*
D14*
%TO.P,U3,2,-*%
%TO.N,Net-(U3A--)*%
X89352200Y-60299600D03*
%TO.P,U3,3,+*%
%TO.N,0*%
X89352200Y-57759600D03*
%TO.P,U3,4,V-*%
%TO.N,/-vdd*%
X89352200Y-55219600D03*
%TO.P,U3,5,+*%
%TO.N,Net-(U3B-+)*%
X81732200Y-55219600D03*
%TO.P,U3,6,-*%
%TO.N,Net-(U3B--)*%
X81732200Y-57759600D03*
%TO.P,U3,7*%
X81732200Y-60299600D03*
%TO.P,U3,8,V+*%
%TO.N,/vdd*%
X81732200Y-62839600D03*
%TD*%
%TO.P,C12,1*%
%TO.N,Net-(C12-Pad1)*%
X115914800Y-68441000D03*
%TO.P,C12,2*%
%TO.N,Net-(C11-Pad1)*%
X120914800Y-68441000D03*
%TD*%
%TO.P,R2,1*%
%TO.N,Net-(U2A-+)*%
X53340000Y-78956600D03*
%TO.P,R2,2*%
%TO.N,0*%
X63500000Y-78956600D03*
%TD*%
D19*
%TO.P,D5,1,+*%
%TO.N,Net-(D5-+)*%
X107950000Y-91453400D03*
D14*
%TO.P,D5,2,-*%
%TO.N,Net-(D5--)*%
X107950000Y-101613400D03*
%TD*%
%TO.P,R12,1*%
%TO.N,/vdd*%
X63144400Y-32119000D03*
%TO.P,R12,2*%
%TO.N,Net-(Q5-B)*%
X73304400Y-32119000D03*
%TD*%
%TO.P,C7,1*%
%TO.N,Net-(C7-Pad1)*%
X41492800Y-53505800D03*
%TO.P,C7,2*%
%TO.N,Net-(D2-+)*%
X46492800Y-53505800D03*
%TD*%
%TO.P,R33,1*%
%TO.N,Net-(R31-Pad1)*%
X106832400Y-84239800D03*
%TO.P,R33,2*%
%TO.N,Net-(U4B--)*%
X106832400Y-74079800D03*
%TD*%
%TO.P,R26,1*%
%TO.N,Net-(Q7-B)*%
X68376800Y-111624200D03*
%TO.P,R26,2*%
%TO.N,Net-(Q8-E)*%
X68376800Y-101464200D03*
%TD*%
D12*
%TO.P,noiseenvelope_input_dc_voltage1,1,Pin_1*%
%TO.N,Net-(Q4-B)*%
X89458800Y-36843400D03*
D13*
%TO.P,noiseenvelope_input_dc_voltage1,2,Pin_2*%
%TO.N,0*%
X89458800Y-34303400D03*
%TD*%
D14*
%TO.P,R7,1*%
%TO.N,Net-(final_output1-Pin_1)*%
X76047600Y-67056000D03*
%TO.P,R7,2*%
%TO.N,Net-(U2B--)*%
X76047600Y-77216000D03*
%TD*%
D21*
%TO.P,main_dc_voltage_source1,1,Pin_1*%
%TO.N,/vdd*%
X101991600Y-102936800D03*
D22*
%TO.P,main_dc_voltage_source1,2,Pin_2*%
%TO.N,0*%
X101991600Y-103936800D03*
%TO.P,main_dc_voltage_source1,3,Pin_3*%
%TO.N,/-vdd*%
X101991600Y-104936800D03*
%TD*%
D14*
%TO.P,R22,1*%
%TO.N,Net-(Q7-B)*%
X76149200Y-111624200D03*
%TO.P,R22,2*%
%TO.N,Net-(D5-+)*%
X76149200Y-101464200D03*
%TD*%
%TO.P,R35,1*%
%TO.N,Net-(Q9-B)*%
X88036400Y-42468800D03*
%TO.P,R35,2*%
%TO.N,Net-(U3B--)*%
X98196400Y-42468800D03*
%TD*%
D15*
%TO.P,RV2,1,1*%
%TO.N,Net-(C13-Pad2)*%
X126593600Y-96482600D03*
%TO.P,RV2,2,2*%
%TO.N,Net-(R38-Pad1)*%
X124053600Y-91402600D03*
%TO.P,RV2,3,3*%
%TO.N,0*%
X121513600Y-96482600D03*
%TD*%
D14*
%TO.P,C3,1*%
%TO.N,Net-(Q5-B)*%
X68122800Y-45506000D03*
%TO.P,C3,2*%
%TO.N,Net-(C3-Pad2)*%
X68122800Y-50506000D03*
%TD*%
D17*
%TO.P,Q4,1,C*%
%TO.N,0*%
X83256800Y-33033400D03*
D18*
%TO.P,Q4,2,B*%
%TO.N,Net-(Q4-B)*%
X83256800Y-34303400D03*
%TO.P,Q4,3,E*%
%TO.N,Net-(Q4-E)*%
X83256800Y-35573400D03*
%TD*%
D14*
%TO.P,R27,1*%
%TO.N,Net-(C12-Pad1)*%
X86969600Y-82296000D03*
%TO.P,R27,2*%
%TO.N,Net-(U4B--)*%
X97129600Y-82296000D03*
%TD*%
%TO.P,C5,1*%
%TO.N,Net-(D2-+)*%
X82905600Y-71606400D03*
%TO.P,C5,2*%
%TO.N,0*%
X82905600Y-76606400D03*
%TD*%
%TO.P,R30,1*%
%TO.N,Net-(U3A--)*%
X129540000Y-84239800D03*
%TO.P,R30,2*%
%TO.N,Net-(C12-Pad1)*%
X129540000Y-74079800D03*
%TD*%
%TO.P,R3,1*%
%TO.N,Net-(C3-Pad2)*%
X51816000Y-54928200D03*
%TO.P,R3,2*%
%TO.N,Net-(U2A--)*%
X51816000Y-65088200D03*
%TD*%
%TO.P,R13,1*%
%TO.N,Net-(D3--)*%
X83616800Y-49137000D03*
%TO.P,R13,2*%
%TO.N,Net-(Q4-E)*%
X83616800Y-38977000D03*
%TD*%
%TO.P,R21,1*%
%TO.N,/vdd*%
X69850000Y-97485200D03*
%TO.P,R21,2*%
%TO.N,Net-(U4A--)*%
X59690000Y-97485200D03*
%TD*%
D16*
%TO.P,D3,1,+*%
%TO.N,Net-(D3-+)*%
X98856800Y-98006600D03*
D14*
%TO.P,D3,2,-*%
%TO.N,Net-(D3--)*%
X98856800Y-87846600D03*
%TD*%
D20*
%TO.P,U2,1*%
%TO.N,Net-(C3-Pad2)*%
X58272600Y-61430600D03*
D14*
%TO.P,U2,2,-*%
%TO.N,Net-(U2A--)*%
X58272600Y-63970600D03*
%TO.P,U2,3,+*%
%TO.N,Net-(U2A-+)*%
X58272600Y-66510600D03*
%TO.P,U2,4,V-*%
%TO.N,/-vdd*%
X58272600Y-69050600D03*
%TO.P,U2,5,+*%
%TO.N,0*%
X65892600Y-69050600D03*
%TO.P,U2,6,-*%
%TO.N,Net-(U2B--)*%
X65892600Y-66510600D03*
%TO.P,U2,7*%
%TO.N,Net-(final_output1-Pin_1)*%
X65892600Y-63970600D03*
%TO.P,U2,8,V+*%
%TO.N,/vdd*%
X65892600Y-61430600D03*
%TD*%
D11*
%TO.P,Q8,1,C*%
%TO.N,0*%
X62788800Y-102819200D03*
D10*
%TO.P,Q8,2,B*%
%TO.N,/3v*%
X61518800Y-102819200D03*
%TO.P,Q8,3,E*%
%TO.N,Net-(Q8-E)*%
X60248800Y-102819200D03*
%TD*%
D15*
%TO.P,RV1,1,1*%
%TO.N,/3v*%
X117094000Y-105918000D03*
%TO.P,RV1,2,2*%
%TO.N,Net-(U3B-+)*%
X119634000Y-110998000D03*
%TO.P,RV1,3,3*%
%TO.N,0*%
X122174000Y-105918000D03*
%TD*%
D14*
%TO.P,R5,1*%
%TO.N,Net-(C9-Pad1)*%
X63042800Y-46431200D03*
%TO.P,R5,2*%
%TO.N,Net-(U2B--)*%
X63042800Y-56591200D03*
%TD*%
%TO.P,R34,1*%
%TO.N,Net-(C11-Pad1)*%
X118313200Y-64935800D03*
%TO.P,R34,2*%
%TO.N,Net-(Q9-C)*%
X118313200Y-54775800D03*
%TD*%
D24*
%TO.N,Net-(U2A-+)*%
X54176600Y-70606600D02*
X58272600Y-66510600D01*
X51816000Y-70606600D02*
X53340000Y-72130600D01*
X51816000Y-70606600D02*
X54176600Y-70606600D01*
X53340000Y-72130600D02*
X53340000Y-78956600D01*
%TO.N,Net-(C3-Pad2)*%
X57048400Y-52404800D02*
X46036750Y-52404800D01*
X46036750Y-52404800D02*
X45391800Y-53049750D01*
X45391800Y-53049750D02*
X45391800Y-53961850D01*
X51816000Y-54928200D02*
X58272600Y-61384800D01*
X68122800Y-50506000D02*
X58947200Y-50506000D01*
X58947200Y-50506000D02*
X57048400Y-52404800D01*
X58272600Y-61384800D02*
X58272600Y-61430600D01*
X45391800Y-53961850D02*
X46358150Y-54928200D01*
X46358150Y-54928200D02*
X51816000Y-54928200D01*
%TO.N,Net-(U2A--)*%
X39404200Y-66290800D02*
X50613400Y-66290800D01*
X38303200Y-65189800D02*
X39404200Y-66290800D01*
X51816000Y-65088200D02*
X57155000Y-65088200D01*
X57155000Y-65088200D02*
X58272600Y-63970600D01*
X50613400Y-66290800D02*
X51816000Y-65088200D01*
%TO.N,Net-(U2B--)*%
X76047600Y-77216000D02*
X76047600Y-79871000D01*
X65892600Y-66510600D02*
X76047600Y-76665600D01*
X63042800Y-56591200D02*
X63042800Y-63660800D01*
X76047600Y-79871000D02*
X76098400Y-79921800D01*
X63042800Y-63660800D02*
X65892600Y-66510600D01*
X76047600Y-76665600D02*
X76047600Y-77216000D01*
%TO.N,Net-(C9-Pad1)*%
X63042800Y-45845800D02*
X63042800Y-46431200D01*
X59436000Y-42239000D02*
X63042800Y-45845800D01*
%TO.N,Net-(R38-Pad1)*%
X124053600Y-91402600D02*
X115468400Y-91402600D01*
X115468400Y-91402600D02*
X115417600Y-91453400D01*
%TO.N,Net-(D5--)*%
X107950000Y-101613400D02*
X115417600Y-101613400D01*
%TO.N,Net-(Q5-B)*%
X72608400Y-38011800D02*
X73558400Y-38011800D01*
X73304400Y-32119000D02*
X70854900Y-34568500D01*
X70854900Y-34568500D02*
X70854900Y-39765300D01*
X68122800Y-45506000D02*
X68122800Y-42497400D01*
X68122800Y-42497400D02*
X70854900Y-39765300D01*
X70854900Y-39765300D02*
X72608400Y-38011800D01*
%TO.N,Net-(D3--)*%
X94843600Y-71120000D02*
X84734400Y-61010800D01*
X94843600Y-76061000D02*
X94843600Y-71120000D01*
X94996000Y-76619800D02*
X94996000Y-83985800D01*
X84734400Y-61010800D02*
X84734400Y-59182000D01*
X98856800Y-87846600D02*
X94640400Y-87846600D01*
X84734400Y-59182000D02*
X83616800Y-58064400D01*
X83616800Y-58064400D02*
X83616800Y-49137000D01*
X94640400Y-76264200D02*
X94843600Y-76061000D01*
X94996000Y-83985800D02*
X98856800Y-87846600D01*
X94640400Y-76264200D02*
X94996000Y-76619800D01*
%TO.N,Net-(Q4-E)*%
X83256800Y-35573400D02*
X83256800Y-38617000D01*
X83256800Y-38617000D02*
X83616800Y-38977000D01*
%TO.N,Net-(D4--)*%
X54305200Y-93942600D02*
X58318400Y-93942600D01*
X54305200Y-98427000D02*
X54305200Y-93942600D01*
X54305200Y-101464200D02*
X54305200Y-98427000D01*
X58318400Y-93942600D02*
X60858400Y-91402600D01*
%TO.N,Net-(Q6-B)*%
X54022000Y-44899000D02*
X54102000Y-44819000D01*
X54022000Y-49492600D02*
X54022000Y-44899000D01*
X53594000Y-44311000D02*
X53594000Y-40099000D01*
X54102000Y-44819000D02*
X53594000Y-44311000D01*
%TO.N,Net-(Q6-E)*%
X39878000Y-39739000D02*
X40569000Y-39048000D01*
X54038000Y-39048000D02*
X54864000Y-39874000D01*
X39878000Y-39739000D02*
X42378000Y-37239000D01*
X40569000Y-39048000D02*
X54038000Y-39048000D01*
X54864000Y-39874000D02*
X54864000Y-40099000D01*
X42378000Y-37239000D02*
X59436000Y-37239000D01*
X39878000Y-34506600D02*
X39878000Y-39739000D01*
%TO.N,Net-(C7-Pad1)*%
X39878000Y-51891000D02*
X41492800Y-53505800D01*
X41492800Y-53505800D02*
X45506000Y-49492600D01*
X39878000Y-49899000D02*
X39878000Y-51891000D01*
X45506000Y-49492600D02*
X49022000Y-49492600D01*
%TO.N,Net-(U4A--)*%
X61959400Y-89963600D02*
X61959400Y-95215800D01*
X61959400Y-95215800D02*
X59690000Y-97485200D01*
X60858400Y-88862600D02*
X61959400Y-89963600D01*
X54305200Y-89892600D02*
X59828400Y-89892600D01*
X59828400Y-89892600D02*
X60858400Y-88862600D01*
%TO.N,Net-(Q7-B)*%
X50850800Y-90655750D02*
X50850800Y-106910600D01*
X88070600Y-81839950D02*
X87425650Y-81195000D01*
X50850800Y-106910600D02*
X53644800Y-109704600D01*
X87425650Y-81195000D02*
X60311550Y-81195000D01*
X88070600Y-82752050D02*
X88070600Y-81839950D01*
X53644800Y-109704600D02*
X55564400Y-111624200D01*
X82092800Y-88729850D02*
X88070600Y-82752050D01*
X60311550Y-81195000D02*
X50850800Y-90655750D01*
X82092800Y-90531000D02*
X82092800Y-88729850D01*
X68376800Y-111624200D02*
X76149200Y-111624200D01*
X82964400Y-91402600D02*
X82092800Y-90531000D01*
X55564400Y-111624200D02*
X68376800Y-111624200D01*
X83464400Y-91402600D02*
X82964400Y-91402600D01*
%TO.N,Net-(D5-+)*%
X61959400Y-89137400D02*
X61959400Y-87423600D01*
X79333000Y-104648000D02*
X94755400Y-104648000D01*
X61959400Y-87423600D02*
X60858400Y-86322600D01*
X76149200Y-101464200D02*
X79333000Y-104648000D01*
X94755400Y-104648000D02*
X107950000Y-91453400D01*
X69728600Y-95043600D02*
X67865600Y-95043600D01*
X76149200Y-101464200D02*
X69728600Y-95043600D01*
X67865600Y-95043600D02*
X61959400Y-89137400D01*
%TO.N,Net-(U4B-+)*%
X80074200Y-93942600D02*
X68478400Y-93942600D01*
X85801200Y-97586800D02*
X91084400Y-92303600D01*
X83718400Y-97586800D02*
X85801200Y-97586800D01*
X83718400Y-97586800D02*
X80074200Y-93942600D01*
%TO.N,Net-(D3-+)*%
X85057540Y-91202600D02*
X83587540Y-92672600D01*
X92185400Y-91847550D02*
X91540450Y-91202600D01*
X83587540Y-92672600D02*
X83464400Y-92672600D01*
X91084400Y-102463600D02*
X94399800Y-102463600D01*
X91084400Y-102463600D02*
X92185400Y-101362600D01*
X83630200Y-92672600D02*
X83464400Y-92672600D01*
X94399800Y-102463600D02*
X98856800Y-98006600D01*
X91540450Y-91202600D02*
X85057540Y-91202600D01*
X92185400Y-101362600D02*
X92185400Y-91847550D01*
%TO.N,Net-(Q8-E)*%
X60248800Y-102819200D02*
X60248800Y-102319200D01*
X60248800Y-102319200D02*
X61103800Y-101464200D01*
X61103800Y-101464200D02*
X68376800Y-101464200D01*
%TO.N,Net-(C12-Pad1)*%
X51765200Y-101854000D02*
X56083200Y-106172000D01*
X120223013Y-112420000D02*
X125572600Y-107070413D01*
X69697600Y-90081800D02*
X68478400Y-88862600D01*
X128439000Y-72978800D02*
X120452600Y-72978800D01*
X86969600Y-82296000D02*
X83884200Y-82296000D01*
X125572600Y-107070413D02*
X125572600Y-96059687D01*
X57253050Y-84820600D02*
X51765200Y-90308450D01*
X120452600Y-72978800D02*
X115914800Y-68441000D01*
X101032500Y-112420000D02*
X120223013Y-112420000D01*
X131775200Y-76315000D02*
X129540000Y-74079800D01*
X129540000Y-74079800D02*
X128439000Y-72978800D01*
X131775200Y-89857087D02*
X131775200Y-76315000D01*
X56083200Y-106172000D02*
X94784500Y-106172000D01*
X83884200Y-82296000D02*
X76098400Y-90081800D01*
X125572600Y-96059687D02*
X131775200Y-89857087D01*
X94784500Y-106172000D02*
X101032500Y-112420000D01*
X64436400Y-84820600D02*
X57253050Y-84820600D01*
X68478400Y-88862600D02*
X64436400Y-84820600D01*
X76098400Y-90081800D02*
X69697600Y-90081800D01*
X51765200Y-90308450D02*
X51765200Y-101854000D01*
%TO.N,Net-(U4B--)*%
X97129600Y-82296000D02*
X101245860Y-82296000D01*
X52730400Y-89910350D02*
X57419150Y-85221600D01*
X101245860Y-82296000D02*
X120655000Y-101705140D01*
X120056913Y-112019000D02*
X101198600Y-112019000D01*
X120655000Y-101705140D02*
X120655000Y-111420913D01*
X120655000Y-111420913D02*
X120056913Y-112019000D01*
X52730400Y-101904800D02*
X52730400Y-89910350D01*
X62297400Y-85221600D02*
X68478400Y-91402600D01*
X101198600Y-112019000D02*
X94538800Y-105359200D01*
X94538800Y-105359200D02*
X56184800Y-105359200D01*
X105345800Y-74079800D02*
X97129600Y-82296000D01*
X106832400Y-74079800D02*
X106832400Y-68582600D01*
X57419150Y-85221600D02*
X62297400Y-85221600D01*
X106832400Y-74079800D02*
X105345800Y-74079800D01*
X106832400Y-68582600D02*
X106974000Y-68441000D01*
X56184800Y-105359200D02*
X52730400Y-101904800D01*
%TO.N,Net-(R28-Pad1)*%
X107696000Y-57315800D02*
X101346000Y-57315800D01*
%TO.N,Net-(U3A--)*%
X100389650Y-60299600D02*
X89352200Y-60299600D01*
X115417600Y-84239800D02*
X114316600Y-85340800D01*
X108075000Y-67984950D02*
X100389650Y-60299600D01*
X114316600Y-85340800D02*
X106376350Y-85340800D01*
X105003600Y-83968050D02*
X108075000Y-80896650D01*
X115417600Y-84239800D02*
X124053600Y-84239800D01*
X108075000Y-80896650D02*
X108075000Y-67984950D01*
X106376350Y-85340800D02*
X105003600Y-83968050D01*
X129540000Y-84239800D02*
X129475800Y-84239800D01*
X124053600Y-84239800D02*
X129540000Y-84239800D01*
%TO.N,Net-(R31-Pad1)*%
X108476000Y-82596200D02*
X108476000Y-67818850D01*
X99855750Y-59198600D02*
X88896150Y-59198600D01*
X112877600Y-79159800D02*
X117957600Y-74079800D01*
X88896150Y-59198600D02*
X88188800Y-59905950D01*
X88188800Y-61676200D02*
X89352200Y-62839600D01*
X117957600Y-74079800D02*
X124053600Y-74079800D01*
X108476000Y-67818850D02*
X99855750Y-59198600D01*
X112877600Y-79159800D02*
X107797600Y-84239800D01*
X106832400Y-84239800D02*
X108476000Y-82596200D01*
X88188800Y-59905950D02*
X88188800Y-61676200D01*
X107797600Y-84239800D02*
X106832400Y-84239800D01*
%TO.N,Net-(Q9-C)*%
X118313200Y-54775800D02*
X118313200Y-49797400D01*
X118313200Y-54775800D02*
X112776000Y-54775800D01*
%TO.N,Net-(C11-Pad1)*%
X120914800Y-68441000D02*
X118313200Y-65839400D01*
X118313200Y-65839400D02*
X118313200Y-64935800D01*
X118313200Y-64935800D02*
X115479200Y-64935800D01*
X115479200Y-64935800D02*
X111974000Y-68441000D01*
%TO.N,Net-(U3B--)*%
X83160750Y-48036000D02*
X80631200Y-50565550D01*
X80631200Y-56658600D02*
X81732200Y-57759600D01*
X81732200Y-57759600D02*
X81732200Y-60299600D01*
X92629200Y-48036000D02*
X83160750Y-48036000D01*
X98196400Y-42468800D02*
X92629200Y-48036000D01*
X80631200Y-50565550D02*
X80631200Y-56658600D01*
%TO.N,Net-(Q9-B)*%
X124053600Y-53644430D02*
X118936570Y-48527400D01*
X124053600Y-54775800D02*
X124053600Y-53644430D01*
X99559200Y-41367800D02*
X106718800Y-48527400D01*
X106718800Y-48527400D02*
X118313200Y-48527400D01*
X89137400Y-41367800D02*
X99559200Y-41367800D01*
X88036400Y-42468800D02*
X89137400Y-41367800D01*
X118936570Y-48527400D02*
X118313200Y-48527400D01*
%TO.N,Net-(C13-Pad2)*%
X133604000Y-74218800D02*
X131572000Y-72186800D01*
X124917200Y-69392800D02*
X124917200Y-65799400D01*
X129860375Y-72202375D02*
X127050800Y-69392800D01*
X131572000Y-72186800D02*
X129875950Y-72186800D01*
X126593600Y-96482600D02*
X133604000Y-89472200D01*
X129875950Y-72186800D02*
X129860375Y-72202375D01*
X124917200Y-65799400D02*
X124053600Y-64935800D01*
X127050800Y-69392800D02*
X124917200Y-69392800D01*
X133604000Y-89472200D02*
X133604000Y-74218800D01*
%TO.N,Net-(D2-+)*%
X76200000Y-60299600D02*
X79837150Y-60299600D01*
X46492800Y-53505800D02*
X59246200Y-53505800D01*
X68999800Y-53099400D02*
X74980800Y-59080400D01*
X91678200Y-71606400D02*
X92100400Y-71184200D01*
X79837150Y-60299600D02*
X81276150Y-61738600D01*
X74980800Y-59080400D02*
X76200000Y-60299600D01*
X81276150Y-61738600D02*
X82654800Y-61738600D01*
X82905600Y-71606400D02*
X91678200Y-71606400D01*
X59246200Y-53505800D02*
X59652600Y-53099400D01*
X82654800Y-61738600D02*
X92100400Y-71184200D01*
X59652600Y-53099400D02*
X68999800Y-53099400D01*
%TO.N,Net-(U3B-+)*%
X92811600Y-89712800D02*
X92252800Y-89154000D01*
X92252800Y-89154000D02*
X92252800Y-86609650D01*
X92252800Y-86609650D02*
X92100400Y-86457250D01*
X119583200Y-101200440D02*
X108095560Y-89712800D01*
X92100400Y-80609950D02*
X93121400Y-79588950D01*
X108095560Y-89712800D02*
X92811600Y-89712800D01*
X92100400Y-86457250D02*
X92100400Y-80609950D01*
X82833200Y-60328800D02*
X82833200Y-56320600D01*
X82833200Y-56320600D02*
X81732200Y-55219600D01*
X119583200Y-110845600D02*
X119583200Y-101200440D01*
X93121400Y-70617000D02*
X82833200Y-60328800D01*
X119634000Y-110896400D02*
X119583200Y-110845600D01*
X119634000Y-110998000D02*
X119634000Y-110896400D01*
X93121400Y-79588950D02*
X93121400Y-70617000D01*
%TO.N,Net-(D2--)*%
X74980800Y-48920400D02*
X74980800Y-40704200D01*
X77825600Y-38541400D02*
X77085200Y-39281800D01*
X74980800Y-40704200D02*
X73558400Y-39281800D01*
X77085200Y-39281800D02*
X73558400Y-39281800D01*
%TD*%
M02*
