%TF.GenerationSoftware,KiCad,Pcbnew,9.0.5*%
%TF.CreationDate,2025-11-03T18:22:31+05:30*%
%TF.ProjectId,full_schematic_kicad.kicad_pcb_final,66756c6c-5f73-4636-9865-6d617469635f,rev?*%
%TF.SameCoordinates,Original*%
%TF.FileFunction,Copper,L2,Bot*%
%TF.FilePolarity,Positive*%
%FSLAX46Y46*%
G04 Gerber Fmt 4.6, Leading zero omitted, Abs format (unit mm)*
G04 Created by KiCad (PCBNEW 9.0.5) date 2025-11-03 18:22:31*
%MOMM*%
%LPD*%
G01*
G04 APERTURE LIST*
G04 Aperture macros list*
%AMRoundRect*
0 Rectangle with rounded corners*
0 $1 Rounding radius*
0 $2 $3 $4 $5 $6 $7 $8 $9 X,Y pos of 4 corners*
0 Add a 4 corners polygon primitive as box body*
4,1,4,$2,$3,$4,$5,$6,$7,$8,$9,$2,$3,0*
0 Add four circle primitives for the rounded corners*
1,1,$1+$1,$2,$3*
1,1,$1+$1,$4,$5*
1,1,$1+$1,$6,$7*
1,1,$1+$1,$8,$9*
0 Add four rect primitives between the rounded corners*
20,1,$1+$1,$2,$3,$4,$5,0*
20,1,$1+$1,$4,$5,$6,$7,0*
20,1,$1+$1,$6,$7,$8,$9,0*
20,1,$1+$1,$8,$9,$2,$3,0*%
G04 Aperture macros list end*
%TA.AperFunction,ComponentPad*%
%ADD10O,1.050000X1.500000*%
%TD*%
%TA.AperFunction,ComponentPad*%
%ADD11R,1.050000X1.500000*%
%TD*%
%TA.AperFunction,ComponentPad*%
%ADD12R,1.700000X1.700000*%
%TD*%
%TA.AperFunction,ComponentPad*%
%ADD13C,1.700000*%
%TD*%
%TA.AperFunction,ComponentPad*%
%ADD14C,1.600000*%
%TD*%
%TA.AperFunction,ComponentPad*%
%ADD15C,1.440000*%
%TD*%
%TA.AperFunction,ComponentPad*%
%ADD16RoundRect,0.250000X0.550000X-0.550000X0.550000X0.550000X-0.550000X0.550000X-0.550000X-0.550000X0*%
%TD*%
%TA.AperFunction,ComponentPad*%
%ADD17R,1.500000X1.050000*%
%TD*%
%TA.AperFunction,ComponentPad*%
%ADD18O,1.500000X1.050000*%
%TD*%
%TA.AperFunction,ComponentPad*%
%ADD19RoundRect,0.250000X-0.550000X0.550000X-0.550000X-0.550000X0.550000X-0.550000X0.550000X0.550000X0*%
%TD*%
%TA.AperFunction,ComponentPad*%
%ADD20RoundRect,0.250000X-0.550000X-0.550000X0.550000X-0.550000X0.550000X0.550000X-0.550000X0.550000X0*%
%TD*%
%TA.AperFunction,ComponentPad*%
%ADD21R,0.850000X0.850000*%
%TD*%
%TA.AperFunction,ComponentPad*%
%ADD22C,0.850000*%
%TD*%
%TA.AperFunction,ComponentPad*%
%ADD23RoundRect,0.250000X0.550000X0.550000X-0.550000X0.550000X-0.550000X-0.550000X0.550000X-0.550000X0*%
%TD*%
%TA.AperFunction,Conductor*%
%ADD24C,0.200000*%
%TD*%
G04 APERTURE END LIST*
D10*
%TO.P,Q6,3,E*%
%TO.N,Net-(Q6-E)*%
X54864000Y-40099000D03*
%TO.P,Q6,2,B*%
%TO.N,Net-(Q6-B)*%
X53594000Y-40099000D03*
D11*
%TO.P,Q6,1,C*%
%TO.N,/vdd*%
X52324000Y-40099000D03*
%TD*%
D12*
%TO.P,noise_input1,1,Pin_1*%
%TO.N,Net-(Q1-E)*%
X47802800Y-61283200D03*
D13*
%TO.P,noise_input1,2,Pin_2*%
%TO.N,0*%
X47802800Y-58743200D03*
%TD*%
D14*
%TO.P,R25,1*%
%TO.N,Net-(U4B-+)*%
X83718400Y-97586800D03*
%TO.P,R25,2*%
%TO.N,0*%
X83718400Y-107746800D03*
%TD*%
%TO.P,R16,1*%
%TO.N,Net-(Q6-B)*%
X54102000Y-44819000D03*
%TO.P,R16,2*%
%TO.N,0*%
X43942000Y-44819000D03*
%TD*%
D15*
%TO.P,RV3,1,1*%
%TO.N,Net-(Q9-C)*%
X112776000Y-54775800D03*
%TO.P,RV3,2,2*%
%TO.N,Net-(R28-Pad1)*%
X107696000Y-57315800D03*
%TO.P,RV3,3,3*%
%TO.N,0*%
X112776000Y-59855800D03*
%TD*%
D14*
%TO.P,C13,1*%
%TO.N,0*%
X129917200Y-69392800D03*
%TO.P,C13,2*%
%TO.N,Net-(C13-Pad2)*%
X124917200Y-69392800D03*
%TD*%
D16*
%TO.P,D2,1,+*%
%TO.N,Net-(D2-+)*%
X74980800Y-59080400D03*
D14*
%TO.P,D2,2,-*%
%TO.N,Net-(D2--)*%
X74980800Y-48920400D03*
%TD*%
%TO.P,R1,1*%
%TO.N,/vdd*%
X63550800Y-82651600D03*
%TO.P,R1,2*%
%TO.N,Net-(Q1-E)*%
X53390800Y-82651600D03*
%TD*%
D17*
%TO.P,Q9,1,C*%
%TO.N,Net-(Q9-C)*%
X118313200Y-49797400D03*
D18*
%TO.P,Q9,2,B*%
%TO.N,Net-(Q9-B)*%
X118313200Y-48527400D03*
%TO.P,Q9,3,E*%
%TO.N,0*%
X118313200Y-47257400D03*
%TD*%
D17*
%TO.P,Q5,1,C*%
%TO.N,Net-(D2--)*%
X73558400Y-39281800D03*
D18*
%TO.P,Q5,2,B*%
%TO.N,Net-(Q5-B)*%
X73558400Y-38011800D03*
%TO.P,Q5,3,E*%
%TO.N,0*%
X73558400Y-36741800D03*
%TD*%
D14*
%TO.P,R15,1*%
%TO.N,Net-(U2A--)*%
X38303200Y-65189800D03*
%TO.P,R15,2*%
%TO.N,0*%
X48463200Y-65189800D03*
%TD*%
%TO.P,R17,1*%
%TO.N,Net-(Q6-E)*%
X39878000Y-39739000D03*
%TO.P,R17,2*%
%TO.N,Net-(C7-Pad1)*%
X39878000Y-49899000D03*
%TD*%
D15*
%TO.P,RV4,1,1*%
%TO.N,Net-(R31-Pad1)*%
X112877600Y-79159800D03*
%TO.P,RV4,2,2*%
%TO.N,Net-(U3A--)*%
X115417600Y-84239800D03*
%TO.P,RV4,3,3*%
%TO.N,0*%
X117957600Y-79159800D03*
%TD*%
%TO.P,RV5,1,1*%
%TO.N,Net-(D3--)*%
X94640400Y-76264200D03*
%TO.P,RV5,2,2*%
%TO.N,Net-(D2-+)*%
X92100400Y-71184200D03*
%TO.P,RV5,3,3*%
%TO.N,0*%
X89560400Y-76264200D03*
%TD*%
D14*
%TO.P,R28,1*%
%TO.N,Net-(R28-Pad1)*%
X101346000Y-57315800D03*
%TO.P,R28,2*%
%TO.N,0*%
X101346000Y-67475800D03*
%TD*%
%TO.P,R24,1*%
%TO.N,Net-(D3-+)*%
X91084400Y-102463600D03*
%TO.P,R24,2*%
%TO.N,Net-(U4B-+)*%
X91084400Y-92303600D03*
%TD*%
D19*
%TO.P,C1,1*%
%TO.N,Net-(U2A-+)*%
X51816000Y-70606600D03*
D14*
%TO.P,C1,2*%
%TO.N,Net-(Q1-E)*%
X51816000Y-72606600D03*
%TD*%
D17*
%TO.P,Q7,1,C*%
%TO.N,/vdd*%
X83464400Y-90132600D03*
D18*
%TO.P,Q7,2,B*%
%TO.N,Net-(Q7-B)*%
X83464400Y-91402600D03*
%TO.P,Q7,3,E*%
%TO.N,Net-(D3-+)*%
X83464400Y-92672600D03*
%TD*%
D14*
%TO.P,C9,1*%
%TO.N,Net-(C9-Pad1)*%
X59436000Y-42239000D03*
%TO.P,C9,2*%
%TO.N,Net-(Q6-E)*%
X59436000Y-37239000D03*
%TD*%
%TO.P,R18,1*%
%TO.N,/-vdd*%
X50038000Y-34506600D03*
%TO.P,R18,2*%
%TO.N,Net-(Q6-E)*%
X39878000Y-34506600D03*
%TD*%
%TO.P,R6,1*%
%TO.N,Net-(U2B--)*%
X76098400Y-79921800D03*
%TO.P,R6,2*%
%TO.N,Net-(C12-Pad1)*%
X76098400Y-90081800D03*
%TD*%
%TO.P,C6,1*%
%TO.N,Net-(D3--)*%
X94640400Y-87846600D03*
%TO.P,C6,2*%
%TO.N,0*%
X89640400Y-87846600D03*
%TD*%
%TO.P,R31,1*%
%TO.N,Net-(R31-Pad1)*%
X124053600Y-74079800D03*
%TO.P,R31,2*%
%TO.N,Net-(U3A--)*%
X124053600Y-84239800D03*
%TD*%
D20*
%TO.P,D4,1,+*%
%TO.N,0*%
X44145200Y-98427000D03*
D14*
%TO.P,D4,2,-*%
%TO.N,Net-(D4--)*%
X54305200Y-98427000D03*
%TD*%
D21*
%TO.P,3V_input_dc1,1,Pin_1*%
%TO.N,/3v*%
X61230000Y-110009400D03*
D22*
%TO.P,3V_input_dc1,2,Pin_2*%
%TO.N,0*%
X62230000Y-110009400D03*
%TD*%
D14*
%TO.P,C8,1*%
%TO.N,Net-(Q6-B)*%
X54022000Y-49492600D03*
%TO.P,C8,2*%
%TO.N,Net-(C7-Pad1)*%
X49022000Y-49492600D03*
%TD*%
%TO.P,R36,1*%
%TO.N,Net-(C13-Pad2)*%
X124053600Y-64935800D03*
%TO.P,R36,2*%
%TO.N,Net-(Q9-B)*%
X124053600Y-54775800D03*
%TD*%
D12*
%TO.P,input_pulse1,1,Pin_1*%
%TO.N,Net-(input_pulse1-Pin_1)*%
X48564800Y-103964200D03*
D13*
%TO.P,input_pulse1,2,Pin_2*%
%TO.N,0*%
X46024800Y-103964200D03*
%TD*%
D14*
%TO.P,C11,1*%
%TO.N,Net-(C11-Pad1)*%
X111974000Y-68441000D03*
%TO.P,C11,2*%
%TO.N,Net-(U4B--)*%
X106974000Y-68441000D03*
%TD*%
D11*
%TO.P,Q1,1,C*%
%TO.N,unconnected-(Q1-C-Pad1)*%
X46431200Y-72348200D03*
D10*
%TO.P,Q1,2,B*%
%TO.N,0*%
X45161200Y-72348200D03*
%TO.P,Q1,3,E*%
%TO.N,Net-(Q1-E)*%
X43891200Y-72348200D03*
%TD*%
D14*
%TO.P,R38,1*%
%TO.N,Net-(R38-Pad1)*%
X115417600Y-91453400D03*
%TO.P,R38,2*%
%TO.N,Net-(D5--)*%
X115417600Y-101613400D03*
%TD*%
D12*
%TO.P,final_output1,1,Pin_1*%
%TO.N,Net-(final_output1-Pin_1)*%
X82448400Y-67665600D03*
%TD*%
D14*
%TO.P,C4,1*%
%TO.N,0*%
X77825600Y-33541400D03*
%TO.P,C4,2*%
%TO.N,Net-(D2--)*%
X77825600Y-38541400D03*
%TD*%
%TO.P,R23,1*%
%TO.N,0*%
X43484800Y-109704600D03*
%TO.P,R23,2*%
%TO.N,Net-(Q7-B)*%
X53644800Y-109704600D03*
%TD*%
D20*
%TO.P,U4,1*%
%TO.N,Net-(D5-+)*%
X60858400Y-86322600D03*
D14*
%TO.P,U4,2,-*%
%TO.N,Net-(U4A--)*%
X60858400Y-88862600D03*
%TO.P,U4,3,+*%
%TO.N,Net-(D4--)*%
X60858400Y-91402600D03*
%TO.P,U4,4,V-*%
%TO.N,/-vdd*%
X60858400Y-93942600D03*
%TO.P,U4,5,+*%
%TO.N,Net-(U4B-+)*%
X68478400Y-93942600D03*
%TO.P,U4,6,-*%
%TO.N,Net-(U4B--)*%
X68478400Y-91402600D03*
%TO.P,U4,7*%
%TO.N,Net-(C12-Pad1)*%
X68478400Y-88862600D03*
%TO.P,U4,8,V+*%
%TO.N,/vdd*%
X68478400Y-86322600D03*
%TD*%
%TO.P,R19,1*%
%TO.N,Net-(D4--)*%
X54305200Y-93942600D03*
%TO.P,R19,2*%
%TO.N,0*%
X44145200Y-93942600D03*
%TD*%
%TO.P,R20,1*%
%TO.N,Net-(U4A--)*%
X54305200Y-89892600D03*
%TO.P,R20,2*%
%TO.N,0*%
X44145200Y-89892600D03*
%TD*%
%TO.P,C10,1*%
%TO.N,Net-(D4--)*%
X54305200Y-101464200D03*
%TO.P,C10,2*%
%TO.N,Net-(input_pulse1-Pin_1)*%
X54305200Y-106464200D03*
%TD*%
D23*
%TO.P,U3,1*%
%TO.N,Net-(R31-Pad1)*%
X89352200Y-62839600D03*
D14*
%TO.P,U3,2,-*%
%TO.N,Net-(U3A--)*%
X89352200Y-60299600D03*
%TO.P,U3,3,+*%
%TO.N,0*%
X89352200Y-57759600D03*
%TO.P,U3,4,V-*%
%TO.N,/-vdd*%
X89352200Y-55219600D03*
%TO.P,U3,5,+*%
%TO.N,Net-(U3B-+)*%
X81732200Y-55219600D03*
%TO.P,U3,6,-*%
%TO.N,Net-(U3B--)*%
X81732200Y-57759600D03*
%TO.P,U3,7*%
X81732200Y-60299600D03*
%TO.P,U3,8,V+*%
%TO.N,/vdd*%
X81732200Y-62839600D03*
%TD*%
%TO.P,C12,1*%
%TO.N,Net-(C12-Pad1)*%
X115914800Y-68441000D03*
%TO.P,C12,2*%
%TO.N,Net-(C11-Pad1)*%
X120914800Y-68441000D03*
%TD*%
%TO.P,R2,1*%
%TO.N,Net-(U2A-+)*%
X53340000Y-78956600D03*
%TO.P,R2,2*%
%TO.N,0*%
X63500000Y-78956600D03*
%TD*%
D19*
%TO.P,D5,1,+*%
%TO.N,Net-(D5-+)*%
X107950000Y-91453400D03*
D14*
%TO.P,D5,2,-*%
%TO.N,Net-(D5--)*%
X107950000Y-101613400D03*
%TD*%
%TO.P,R12,1*%
%TO.N,/vdd*%
X63144400Y-32119000D03*
%TO.P,R12,2*%
%TO.N,Net-(Q5-B)*%
X73304400Y-32119000D03*
%TD*%
%TO.P,C7,1*%
%TO.N,Net-(C7-Pad1)*%
X41492800Y-53505800D03*
%TO.P,C7,2*%
%TO.N,Net-(D2-+)*%
X46492800Y-53505800D03*
%TD*%
%TO.P,R33,1*%
%TO.N,Net-(R31-Pad1)*%
X106832400Y-84239800D03*
%TO.P,R33,2*%
%TO.N,Net-(U4B--)*%
X106832400Y-74079800D03*
%TD*%
%TO.P,R26,1*%
%TO.N,Net-(Q7-B)*%
X68376800Y-111624200D03*
%TO.P,R26,2*%
%TO.N,Net-(Q8-E)*%
X68376800Y-101464200D03*
%TD*%
D12*
%TO.P,noiseenvelope_input_dc_voltage1,1,Pin_1*%
%TO.N,Net-(Q4-B)*%
X89458800Y-36843400D03*
D13*
%TO.P,noiseenvelope_input_dc_voltage1,2,Pin_2*%
%TO.N,0*%
X89458800Y-34303400D03*
%TD*%
D14*
%TO.P,R7,1*%
%TO.N,Net-(final_output1-Pin_1)*%
X76047600Y-67056000D03*
%TO.P,R7,2*%
%TO.N,Net-(U2B--)*%
X76047600Y-77216000D03*
%TD*%
D21*
%TO.P,main_dc_voltage_source1,1,Pin_1*%
%TO.N,/vdd*%
X101991600Y-102936800D03*
D22*
%TO.P,main_dc_voltage_source1,2,Pin_2*%
%TO.N,0*%
X101991600Y-103936800D03*
%TO.P,main_dc_voltage_source1,3,Pin_3*%
%TO.N,/-vdd*%
X101991600Y-104936800D03*
%TD*%
D14*
%TO.P,R22,1*%
%TO.N,Net-(Q7-B)*%
X76149200Y-111624200D03*
%TO.P,R22,2*%
%TO.N,Net-(D5-+)*%
X76149200Y-101464200D03*
%TD*%
%TO.P,R35,1*%
%TO.N,Net-(Q9-B)*%
X88036400Y-42468800D03*
%TO.P,R35,2*%
%TO.N,Net-(U3B--)*%
X98196400Y-42468800D03*
%TD*%
D15*
%TO.P,RV2,1,1*%
%TO.N,Net-(C13-Pad2)*%
X126593600Y-96482600D03*
%TO.P,RV2,2,2*%
%TO.N,Net-(R38-Pad1)*%
X124053600Y-91402600D03*
%TO.P,RV2,3,3*%
%TO.N,0*%
X121513600Y-96482600D03*
%TD*%
D14*
%TO.P,C3,1*%
%TO.N,Net-(Q5-B)*%
X68122800Y-45506000D03*
%TO.P,C3,2*%
%TO.N,Net-(C3-Pad2)*%
X68122800Y-50506000D03*
%TD*%
D17*
%TO.P,Q4,1,C*%
%TO.N,0*%
X83256800Y-33033400D03*
D18*
%TO.P,Q4,2,B*%
%TO.N,Net-(Q4-B)*%
X83256800Y-34303400D03*
%TO.P,Q4,3,E*%
%TO.N,Net-(Q4-E)*%
X83256800Y-35573400D03*
%TD*%
D14*
%TO.P,R27,1*%
%TO.N,Net-(C12-Pad1)*%
X86969600Y-82296000D03*
%TO.P,R27,2*%
%TO.N,Net-(U4B--)*%
X97129600Y-82296000D03*
%TD*%
%TO.P,C5,1*%
%TO.N,Net-(D2-+)*%
X82905600Y-71606400D03*
%TO.P,C5,2*%
%TO.N,0*%
X82905600Y-76606400D03*
%TD*%
%TO.P,R30,1*%
%TO.N,Net-(U3A--)*%
X129540000Y-84239800D03*
%TO.P,R30,2*%
%TO.N,Net-(C12-Pad1)*%
X129540000Y-74079800D03*
%TD*%
%TO.P,R3,1*%
%TO.N,Net-(C3-Pad2)*%
X51816000Y-54928200D03*
%TO.P,R3,2*%
%TO.N,Net-(U2A--)*%
X51816000Y-65088200D03*
%TD*%
%TO.P,R13,1*%
%TO.N,Net-(D3--)*%
X83616800Y-49137000D03*
%TO.P,R13,2*%
%TO.N,Net-(Q4-E)*%
X83616800Y-38977000D03*
%TD*%
%TO.P,R21,1*%
%TO.N,/vdd*%
X69850000Y-97485200D03*
%TO.P,R21,2*%
%TO.N,Net-(U4A--)*%
X59690000Y-97485200D03*
%TD*%
D16*
%TO.P,D3,1,+*%
%TO.N,Net-(D3-+)*%
X98856800Y-98006600D03*
D14*
%TO.P,D3,2,-*%
%TO.N,Net-(D3--)*%
X98856800Y-87846600D03*
%TD*%
D20*
%TO.P,U2,1*%
%TO.N,Net-(C3-Pad2)*%
X58272600Y-61430600D03*
D14*
%TO.P,U2,2,-*%
%TO.N,Net-(U2A--)*%
X58272600Y-63970600D03*
%TO.P,U2,3,+*%
%TO.N,Net-(U2A-+)*%
X58272600Y-66510600D03*
%TO.P,U2,4,V-*%
%TO.N,/-vdd*%
X58272600Y-69050600D03*
%TO.P,U2,5,+*%
%TO.N,0*%
X65892600Y-69050600D03*
%TO.P,U2,6,-*%
%TO.N,Net-(U2B--)*%
X65892600Y-66510600D03*
%TO.P,U2,7*%
%TO.N,Net-(final_output1-Pin_1)*%
X65892600Y-63970600D03*
%TO.P,U2,8,V+*%
%TO.N,/vdd*%
X65892600Y-61430600D03*
%TD*%
D11*
%TO.P,Q8,1,C*%
%TO.N,0*%
X62788800Y-102819200D03*
D10*
%TO.P,Q8,2,B*%
%TO.N,/3v*%
X61518800Y-102819200D03*
%TO.P,Q8,3,E*%
%TO.N,Net-(Q8-E)*%
X60248800Y-102819200D03*
%TD*%
D15*
%TO.P,RV1,1,1*%
%TO.N,/3v*%
X117094000Y-105918000D03*
%TO.P,RV1,2,2*%
%TO.N,Net-(U3B-+)*%
X119634000Y-110998000D03*
%TO.P,RV1,3,3*%
%TO.N,0*%
X122174000Y-105918000D03*
%TD*%
D14*
%TO.P,R5,1*%
%TO.N,Net-(C9-Pad1)*%
X63042800Y-46431200D03*
%TO.P,R5,2*%
%TO.N,Net-(U2B--)*%
X63042800Y-56591200D03*
%TD*%
%TO.P,R34,1*%
%TO.N,Net-(C11-Pad1)*%
X118313200Y-64935800D03*
%TO.P,R34,2*%
%TO.N,Net-(Q9-C)*%
X118313200Y-54775800D03*
%TD*%
D24*
%TO.N,/-vdd*%
X52425600Y-36894200D02*
X50038000Y-34506600D01*
X50596800Y-39522400D02*
X52425600Y-37693600D01*
X50596800Y-40640000D02*
X50596800Y-39522400D01*
X52417670Y-41351200D02*
X51308000Y-41351200D01*
X56235600Y-45169130D02*
X52417670Y-41351200D01*
X52425600Y-37693600D02*
X52425600Y-36894200D01*
X56235600Y-67013600D02*
X56235600Y-45169130D01*
X58272600Y-69050600D02*
X56235600Y-67013600D01*
X51308000Y-41351200D02*
X50596800Y-40640000D01*
%TO.N,Net-(Q1-E)*%
X44442200Y-73399200D02*
X43891200Y-72848200D01*
X50715000Y-64195400D02*
X50715000Y-71505600D01*
X47802800Y-61283200D02*
X50715000Y-64195400D01*
X51816000Y-81076800D02*
X51816000Y-72606600D01*
X51816000Y-72606600D02*
X51023400Y-73399200D01*
X51023400Y-73399200D02*
X44442200Y-73399200D01*
X43891200Y-72848200D02*
X43891200Y-72348200D01*
X50715000Y-71505600D02*
X51816000Y-72606600D01*
X53390800Y-82651600D02*
X51816000Y-81076800D01*
%TO.N,/vdd*%
X65892600Y-61430600D02*
X64312800Y-63010400D01*
X68478400Y-82956400D02*
X68478400Y-86322600D01*
X63550800Y-82651600D02*
X68173600Y-82651600D01*
X65892600Y-61430600D02*
X65892600Y-62082600D01*
X69850000Y-97485200D02*
X69850000Y-87694200D01*
X62399000Y-71001800D02*
X64312800Y-69088000D01*
X63550800Y-82905600D02*
X63398400Y-83058000D01*
X65892600Y-61430600D02*
X66104200Y-61430600D01*
X52324000Y-40690430D02*
X52324000Y-40099000D01*
X75988660Y-97485200D02*
X69850000Y-97485200D01*
X62399000Y-81499800D02*
X62399000Y-71001800D01*
X65786000Y-61112400D02*
X65786000Y-54152430D01*
X64312800Y-63010400D02*
X64312800Y-69088000D01*
X63550800Y-82651600D02*
X62399000Y-81499800D01*
X85357400Y-90132600D02*
X83464400Y-90132600D01*
X81732200Y-62839600D02*
X68021200Y-62839600D01*
X63550800Y-82651600D02*
X63550800Y-82905600D01*
X83341260Y-90132600D02*
X75988660Y-97485200D01*
X52324000Y-39975860D02*
X60180860Y-32119000D01*
X83464400Y-90132600D02*
X83341260Y-90132600D01*
X101904800Y-102920800D02*
X100050600Y-101066600D01*
X68173600Y-82651600D02*
X68478400Y-82956400D01*
X68021200Y-62839600D02*
X67767200Y-63093600D01*
X66104200Y-61430600D02*
X67767200Y-63093600D01*
X65786000Y-54152430D02*
X52324000Y-40690430D01*
X96291400Y-101066600D02*
X85357400Y-90132600D01*
X100050600Y-101066600D02*
X96291400Y-101066600D01*
X60180860Y-32119000D02*
X63144400Y-32119000D01*
X66104200Y-61430600D02*
X65786000Y-61112400D01*
X69850000Y-87694200D02*
X68478400Y-86322600D01*
X83464400Y-90132600D02*
X83464400Y-90119200D01*
X83464400Y-90119200D02*
X83718400Y-89865200D01*
X52324000Y-40099000D02*
X52324000Y-39975860D01*
%TO.N,0*%
X63781400Y-109044200D02*
X63808800Y-109016800D01*
X101904800Y-103920800D02*
X103793800Y-103920800D01*
X98348800Y-111353600D02*
X104368600Y-105333800D01*
X46651800Y-59894200D02*
X47802800Y-58743200D01*
X54392539Y-102863200D02*
X47125800Y-102863200D01*
X77724000Y-33439800D02*
X77724000Y-33426400D01*
X118313200Y-47257400D02*
X118313200Y-47105000D01*
X89352200Y-57759600D02*
X91629800Y-57759600D01*
X89640400Y-76344200D02*
X89560400Y-76264200D01*
X43549060Y-71297200D02*
X43065200Y-71781060D01*
X45161200Y-72348200D02*
X45161200Y-71848200D01*
X43065200Y-71781060D02*
X43065200Y-88812600D01*
X89560400Y-76264200D02*
X92557600Y-76264200D01*
X62788800Y-102819200D02*
X62788800Y-102766770D01*
X85533800Y-32220600D02*
X85191600Y-32562800D01*
X112776000Y-58755950D02*
X117246400Y-54285550D01*
X88301200Y-54784261D02*
X88301200Y-56708600D01*
X45161200Y-72348200D02*
X45161200Y-68491800D01*
X83727400Y-32562800D02*
X83256800Y-33033400D01*
X85191600Y-32562800D02*
X83727400Y-32562800D01*
X83718400Y-107746800D02*
X82154400Y-109310800D01*
X108966000Y-59855800D02*
X101346000Y-67475800D01*
X114096800Y-66395600D02*
X113436400Y-65735200D01*
X92557600Y-76264200D02*
X99015900Y-69805900D01*
X91629800Y-57759600D02*
X101346000Y-67475800D01*
X117487000Y-96482600D02*
X108762800Y-105206800D01*
X82905600Y-76606400D02*
X89218200Y-76606400D01*
X122174000Y-105918000D02*
X122174000Y-97143000D01*
X104495600Y-105206800D02*
X104368600Y-105333800D01*
X45161200Y-68491800D02*
X48463200Y-65189800D01*
X112776000Y-65074800D02*
X112776000Y-59855800D01*
X44145200Y-93942600D02*
X44145200Y-89892600D01*
X87376000Y-32220600D02*
X85533800Y-32220600D01*
X62788800Y-102766770D02*
X61840230Y-101818200D01*
X44610200Y-71297200D02*
X43549060Y-71297200D01*
X61840230Y-101818200D02*
X55437539Y-101818200D01*
X65328800Y-76758800D02*
X65227200Y-76657200D01*
X43484800Y-109704600D02*
X43484800Y-106504200D01*
X63396400Y-110009400D02*
X62230000Y-110009400D01*
X63169800Y-78714600D02*
X65227200Y-76657200D01*
X82154400Y-109016800D02*
X64439800Y-109016800D01*
X43065200Y-88812600D02*
X44145200Y-89892600D01*
X62788800Y-108051600D02*
X63781400Y-109044200D01*
X74947750Y-76758800D02*
X65328800Y-76758800D01*
X83718400Y-107746800D02*
X87325200Y-111353600D01*
X92049600Y-36894200D02*
X92049600Y-51035861D01*
X112776000Y-59855800D02*
X112776000Y-58755950D01*
X121513600Y-96482600D02*
X117487000Y-96482600D01*
X117246400Y-54285550D02*
X117246400Y-48099200D01*
X89458800Y-34303400D02*
X87376000Y-32220600D01*
X78333600Y-33033400D02*
X77825600Y-33541400D01*
X46024800Y-103964200D02*
X44145200Y-102084600D01*
X65892600Y-75991800D02*
X65892600Y-69050600D01*
X43942000Y-44819000D02*
X43942000Y-54882400D01*
X118088200Y-47257400D02*
X118313200Y-47257400D01*
X113436400Y-65735200D02*
X112776000Y-65074800D01*
X47125800Y-102863200D02*
X46024800Y-103964200D01*
X104787700Y-104914700D02*
X104368600Y-105333800D01*
X74408600Y-36741800D02*
X73558400Y-36741800D01*
X65227200Y-76657200D02*
X65892600Y-75991800D01*
X89458800Y-34303400D02*
X92049600Y-36894200D01*
X77147450Y-76758800D02*
X76503650Y-76115000D01*
X73063800Y-36741800D02*
X72999600Y-36677600D01*
X113436400Y-74638600D02*
X113436400Y-65735200D01*
X92049600Y-51035861D02*
X88301200Y-54784261D01*
X121513600Y-82715800D02*
X117957600Y-79159800D01*
X89352200Y-57759600D02*
X89458800Y-57759600D01*
X55437539Y-101818200D02*
X54392539Y-102863200D01*
X122174000Y-97143000D02*
X121513600Y-96482600D01*
X83256800Y-33033400D02*
X78333600Y-33033400D01*
X64439800Y-109016800D02*
X64389000Y-109016800D01*
X82154400Y-109310800D02*
X82154400Y-109016800D01*
X112776000Y-59855800D02*
X108966000Y-59855800D01*
X89218200Y-76606400D02*
X89560400Y-76264200D01*
X103793800Y-103920800D02*
X104787700Y-104914700D01*
X129917200Y-69392800D02*
X126920000Y-66395600D01*
X82905600Y-76606400D02*
X82753200Y-76758800D01*
X126920000Y-66395600D02*
X114096800Y-66395600D01*
X77825600Y-33541400D02*
X77724000Y-33439800D01*
X87325200Y-111353600D02*
X98348800Y-111353600D01*
X44145200Y-98427000D02*
X44145200Y-93942600D01*
X117246400Y-48099200D02*
X118088200Y-47257400D01*
X99015900Y-69805900D02*
X101346000Y-67475800D01*
X46024800Y-103964200D02*
X45962300Y-104026700D01*
X89640400Y-87846600D02*
X89640400Y-76344200D01*
X121513600Y-96482600D02*
X121513600Y-82715800D01*
X63808800Y-109016800D02*
X64439800Y-109016800D01*
X44145200Y-102084600D02*
X44145200Y-98427000D01*
X108762800Y-105206800D02*
X104495600Y-105206800D01*
X48463200Y-65189800D02*
X46651800Y-63378400D01*
X82753200Y-76758800D02*
X77147450Y-76758800D01*
X43942000Y-54882400D02*
X47802800Y-58743200D01*
X77724000Y-33426400D02*
X74408600Y-36741800D01*
X64389000Y-109016800D02*
X63396400Y-110009400D01*
X62788800Y-102819200D02*
X62788800Y-108051600D01*
X117957600Y-79159800D02*
X113436400Y-74638600D01*
X75591550Y-76115000D02*
X74947750Y-76758800D01*
X43484800Y-106504200D02*
X46024800Y-103964200D01*
X45161200Y-71848200D02*
X44610200Y-71297200D01*
X88301200Y-56708600D02*
X89352200Y-57759600D01*
X76503650Y-76115000D02*
X75591550Y-76115000D01*
X46651800Y-63378400D02*
X46651800Y-59894200D01*
%TO.N,Net-(final_output1-Pin_1)*%
X65892600Y-63970600D02*
X72962200Y-63970600D01*
X81838800Y-67056000D02*
X82448400Y-67665600D01*
X76047600Y-67056000D02*
X81838800Y-67056000D01*
X72962200Y-63970600D02*
X76047600Y-67056000D01*
%TO.N,/-vdd*%
X58272600Y-69050600D02*
X58272600Y-93680200D01*
X89352200Y-55219600D02*
X90779600Y-55219600D01*
X90779600Y-55219600D02*
X94691200Y-51308000D01*
X58272600Y-93680200D02*
X58535000Y-93942600D01*
X94691200Y-35052000D02*
X90657200Y-31018000D01*
X58535000Y-93942600D02*
X60858400Y-93942600D01*
X100549200Y-106276400D02*
X99124000Y-104851200D01*
X53526600Y-31018000D02*
X50038000Y-34506600D01*
X99124000Y-104851200D02*
X98820840Y-104851200D01*
X101904800Y-104920800D02*
X100549200Y-106276400D01*
X94691200Y-51308000D02*
X94691200Y-35052000D01*
X98820840Y-104851200D02*
X93791640Y-99822000D01*
X90657200Y-31018000D02*
X53526600Y-31018000D01*
X93791640Y-99822000D02*
X66737800Y-99822000D01*
X66737800Y-99822000D02*
X60858400Y-93942600D01*
%TO.N,/3v*%
X110286800Y-112725200D02*
X117094000Y-105918000D01*
X58242200Y-110210600D02*
X58242200Y-112725200D01*
X58394600Y-110210600D02*
X58595800Y-110009400D01*
X61518800Y-102819200D02*
X61518800Y-103319200D01*
X61518800Y-103319200D02*
X59783600Y-105054400D01*
X58242200Y-110210600D02*
X58394600Y-110210600D01*
X58242200Y-106095800D02*
X58242200Y-110210600D01*
X58242200Y-112725200D02*
X110286800Y-112725200D01*
X59283600Y-105054400D02*
X58242200Y-106095800D01*
X58595800Y-110009400D02*
X61230000Y-110009400D01*
X59783600Y-105054400D02*
X59283600Y-105054400D01*
%TO.N,Net-(Q4-B)*%
X86918800Y-34303400D02*
X83256800Y-34303400D01*
X89458800Y-36843400D02*
X86918800Y-34303400D01*
%TO.N,Net-(input_pulse1-Pin_1)*%
X48653800Y-106464200D02*
X54305200Y-106464200D01*
X48564800Y-106375200D02*
X48653800Y-106464200D01*
X48564800Y-103964200D02*
X48564800Y-106375200D01*
%TD*%
M02*
